<?xml version="1.0" encoding="utf-8" standalone="no"?>
<!DOCTYPE svg PUBLIC "-//W3C//DTD SVG 1.1//EN"
  "http://www.w3.org/Graphics/SVG/1.1/DTD/svg11.dtd">
<svg height="227.234063pt" version="1.1" viewBox="0 0 1270.909375 227.234063" width="1270.909375pt" xmlns="http://www.w3.org/2000/svg" xmlns:xlink="http://www.w3.org/1999/xlink">
 <metadata>
  <rdf:RDF xmlns:cc="http://creativecommons.org/ns#" xmlns:dc="http://purl.org/dc/elements/1.1/" xmlns:rdf="http://www.w3.org/1999/02/22-rdf-syntax-ns#">
   <cc:Work>
    <dc:type rdf:resource="http://purl.org/dc/dcmitype/StillImage"/>
    <dc:date>2021-07-01T14:20:57.561182</dc:date>
    <dc:format>image/svg+xml</dc:format>
    <dc:creator>
     <cc:Agent>
      <dc:title>Matplotlib v3.4.1, https://matplotlib.org/</dc:title>
     </cc:Agent>
    </dc:creator>
   </cc:Work>
  </rdf:RDF>
 </metadata>
 <defs>
  <style type="text/css">*{stroke-linecap:butt;stroke-linejoin:round;}</style>
 </defs>
 <g id="figure_1">
  <g id="patch_1">
   <path d="M 0 227.234063 
L 1270.909375 227.234063 
L 1270.909375 0 
L 0 0 
z
" style="fill:#ffffff;"/>
  </g>
  <g id="axes_1">
   <g id="patch_2">
    <path d="M 120.709375 207.38875 
L 413.042708 207.38875 
L 413.042708 21.935625 
L 120.709375 21.935625 
z
" style="fill:#ffffff;"/>
   </g>
   <g id="matplotlib.axis_1">
    <g id="xtick_1">
     <g id="text_1">
      <!-- 0.0 -->
      <g style="fill:#262626;" transform="translate(113.759375 218.046563)scale(0.1 -0.1)">
       <defs>
        <path d="M 266 2259 
Q 266 3072 433 3567 
Q 600 4063 929 4331 
Q 1259 4600 1759 4600 
Q 2128 4600 2406 4451 
Q 2684 4303 2865 4023 
Q 3047 3744 3150 3342 
Q 3253 2941 3253 2259 
Q 3253 1453 3087 958 
Q 2922 463 2592 192 
Q 2263 -78 1759 -78 
Q 1097 -78 719 397 
Q 266 969 266 2259 
z
M 844 2259 
Q 844 1131 1108 757 
Q 1372 384 1759 384 
Q 2147 384 2411 759 
Q 2675 1134 2675 2259 
Q 2675 3391 2411 3762 
Q 2147 4134 1753 4134 
Q 1366 4134 1134 3806 
Q 844 3388 844 2259 
z
" id="ArialMT-30" transform="scale(0.015625)"/>
        <path d="M 581 0 
L 581 641 
L 1222 641 
L 1222 0 
L 581 0 
z
" id="ArialMT-2e" transform="scale(0.015625)"/>
       </defs>
       <use xlink:href="#ArialMT-30"/>
       <use x="55.615234" xlink:href="#ArialMT-2e"/>
       <use x="83.398438" xlink:href="#ArialMT-30"/>
      </g>
     </g>
    </g>
    <g id="xtick_2">
     <g id="text_2">
      <!-- 0.1 -->
      <g style="fill:#262626;" transform="translate(167.167697 218.046563)scale(0.1 -0.1)">
       <defs>
        <path d="M 2384 0 
L 1822 0 
L 1822 3584 
Q 1619 3391 1289 3197 
Q 959 3003 697 2906 
L 697 3450 
Q 1169 3672 1522 3987 
Q 1875 4303 2022 4600 
L 2384 4600 
L 2384 0 
z
" id="ArialMT-31" transform="scale(0.015625)"/>
       </defs>
       <use xlink:href="#ArialMT-30"/>
       <use x="55.615234" xlink:href="#ArialMT-2e"/>
       <use x="83.398438" xlink:href="#ArialMT-31"/>
      </g>
     </g>
    </g>
    <g id="xtick_3">
     <g id="text_3">
      <!-- 0.2 -->
      <g style="fill:#262626;" transform="translate(220.576019 218.046563)scale(0.1 -0.1)">
       <defs>
        <path d="M 3222 541 
L 3222 0 
L 194 0 
Q 188 203 259 391 
Q 375 700 629 1000 
Q 884 1300 1366 1694 
Q 2113 2306 2375 2664 
Q 2638 3022 2638 3341 
Q 2638 3675 2398 3904 
Q 2159 4134 1775 4134 
Q 1369 4134 1125 3890 
Q 881 3647 878 3216 
L 300 3275 
Q 359 3922 746 4261 
Q 1134 4600 1788 4600 
Q 2447 4600 2831 4234 
Q 3216 3869 3216 3328 
Q 3216 3053 3103 2787 
Q 2991 2522 2730 2228 
Q 2469 1934 1863 1422 
Q 1356 997 1212 845 
Q 1069 694 975 541 
L 3222 541 
z
" id="ArialMT-32" transform="scale(0.015625)"/>
       </defs>
       <use xlink:href="#ArialMT-30"/>
       <use x="55.615234" xlink:href="#ArialMT-2e"/>
       <use x="83.398438" xlink:href="#ArialMT-32"/>
      </g>
     </g>
    </g>
    <g id="xtick_4">
     <g id="text_4">
      <!-- 0.3 -->
      <g style="fill:#262626;" transform="translate(273.98434 218.046563)scale(0.1 -0.1)">
       <defs>
        <path d="M 269 1209 
L 831 1284 
Q 928 806 1161 595 
Q 1394 384 1728 384 
Q 2125 384 2398 659 
Q 2672 934 2672 1341 
Q 2672 1728 2419 1979 
Q 2166 2231 1775 2231 
Q 1616 2231 1378 2169 
L 1441 2663 
Q 1497 2656 1531 2656 
Q 1891 2656 2178 2843 
Q 2466 3031 2466 3422 
Q 2466 3731 2256 3934 
Q 2047 4138 1716 4138 
Q 1388 4138 1169 3931 
Q 950 3725 888 3313 
L 325 3413 
Q 428 3978 793 4289 
Q 1159 4600 1703 4600 
Q 2078 4600 2393 4439 
Q 2709 4278 2876 4000 
Q 3044 3722 3044 3409 
Q 3044 3113 2884 2869 
Q 2725 2625 2413 2481 
Q 2819 2388 3044 2092 
Q 3269 1797 3269 1353 
Q 3269 753 2831 336 
Q 2394 -81 1725 -81 
Q 1122 -81 723 278 
Q 325 638 269 1209 
z
" id="ArialMT-33" transform="scale(0.015625)"/>
       </defs>
       <use xlink:href="#ArialMT-30"/>
       <use x="55.615234" xlink:href="#ArialMT-2e"/>
       <use x="83.398438" xlink:href="#ArialMT-33"/>
      </g>
     </g>
    </g>
    <g id="xtick_5">
     <g id="text_5">
      <!-- 0.4 -->
      <g style="fill:#262626;" transform="translate(327.392662 218.046563)scale(0.1 -0.1)">
       <defs>
        <path d="M 2069 0 
L 2069 1097 
L 81 1097 
L 81 1613 
L 2172 4581 
L 2631 4581 
L 2631 1613 
L 3250 1613 
L 3250 1097 
L 2631 1097 
L 2631 0 
L 2069 0 
z
M 2069 1613 
L 2069 3678 
L 634 1613 
L 2069 1613 
z
" id="ArialMT-34" transform="scale(0.015625)"/>
       </defs>
       <use xlink:href="#ArialMT-30"/>
       <use x="55.615234" xlink:href="#ArialMT-2e"/>
       <use x="83.398438" xlink:href="#ArialMT-34"/>
      </g>
     </g>
    </g>
    <g id="xtick_6">
     <g id="text_6">
      <!-- 0.5 -->
      <g style="fill:#262626;" transform="translate(380.800984 218.046563)scale(0.1 -0.1)">
       <defs>
        <path d="M 266 1200 
L 856 1250 
Q 922 819 1161 601 
Q 1400 384 1738 384 
Q 2144 384 2425 690 
Q 2706 997 2706 1503 
Q 2706 1984 2436 2262 
Q 2166 2541 1728 2541 
Q 1456 2541 1237 2417 
Q 1019 2294 894 2097 
L 366 2166 
L 809 4519 
L 3088 4519 
L 3088 3981 
L 1259 3981 
L 1013 2750 
Q 1425 3038 1878 3038 
Q 2478 3038 2890 2622 
Q 3303 2206 3303 1553 
Q 3303 931 2941 478 
Q 2500 -78 1738 -78 
Q 1113 -78 717 272 
Q 322 622 266 1200 
z
" id="ArialMT-35" transform="scale(0.015625)"/>
       </defs>
       <use xlink:href="#ArialMT-30"/>
       <use x="55.615234" xlink:href="#ArialMT-2e"/>
       <use x="83.398438" xlink:href="#ArialMT-35"/>
      </g>
     </g>
    </g>
   </g>
   <g id="matplotlib.axis_2">
    <g id="ytick_1">
     <g id="text_7">
      <!-- INSTALLMENTS -->
      <g style="fill:#262626;" transform="translate(42.376563 195.656591)scale(0.1 -0.1)">
       <defs>
        <path d="M 597 0 
L 597 4581 
L 1203 4581 
L 1203 0 
L 597 0 
z
" id="ArialMT-49" transform="scale(0.015625)"/>
        <path d="M 488 0 
L 488 4581 
L 1109 4581 
L 3516 984 
L 3516 4581 
L 4097 4581 
L 4097 0 
L 3475 0 
L 1069 3600 
L 1069 0 
L 488 0 
z
" id="ArialMT-4e" transform="scale(0.015625)"/>
        <path d="M 288 1472 
L 859 1522 
Q 900 1178 1048 958 
Q 1197 738 1509 602 
Q 1822 466 2213 466 
Q 2559 466 2825 569 
Q 3091 672 3220 851 
Q 3350 1031 3350 1244 
Q 3350 1459 3225 1620 
Q 3100 1781 2813 1891 
Q 2628 1963 1997 2114 
Q 1366 2266 1113 2400 
Q 784 2572 623 2826 
Q 463 3081 463 3397 
Q 463 3744 659 4045 
Q 856 4347 1234 4503 
Q 1613 4659 2075 4659 
Q 2584 4659 2973 4495 
Q 3363 4331 3572 4012 
Q 3781 3694 3797 3291 
L 3216 3247 
Q 3169 3681 2898 3903 
Q 2628 4125 2100 4125 
Q 1550 4125 1298 3923 
Q 1047 3722 1047 3438 
Q 1047 3191 1225 3031 
Q 1400 2872 2139 2705 
Q 2878 2538 3153 2413 
Q 3553 2228 3743 1945 
Q 3934 1663 3934 1294 
Q 3934 928 3725 604 
Q 3516 281 3123 101 
Q 2731 -78 2241 -78 
Q 1619 -78 1198 103 
Q 778 284 539 648 
Q 300 1013 288 1472 
z
" id="ArialMT-53" transform="scale(0.015625)"/>
        <path d="M 1659 0 
L 1659 4041 
L 150 4041 
L 150 4581 
L 3781 4581 
L 3781 4041 
L 2266 4041 
L 2266 0 
L 1659 0 
z
" id="ArialMT-54" transform="scale(0.015625)"/>
        <path d="M -9 0 
L 1750 4581 
L 2403 4581 
L 4278 0 
L 3588 0 
L 3053 1388 
L 1138 1388 
L 634 0 
L -9 0 
z
M 1313 1881 
L 2866 1881 
L 2388 3150 
Q 2169 3728 2063 4100 
Q 1975 3659 1816 3225 
L 1313 1881 
z
" id="ArialMT-41" transform="scale(0.015625)"/>
        <path d="M 469 0 
L 469 4581 
L 1075 4581 
L 1075 541 
L 3331 541 
L 3331 0 
L 469 0 
z
" id="ArialMT-4c" transform="scale(0.015625)"/>
        <path d="M 475 0 
L 475 4581 
L 1388 4581 
L 2472 1338 
Q 2622 884 2691 659 
Q 2769 909 2934 1394 
L 4031 4581 
L 4847 4581 
L 4847 0 
L 4263 0 
L 4263 3834 
L 2931 0 
L 2384 0 
L 1059 3900 
L 1059 0 
L 475 0 
z
" id="ArialMT-4d" transform="scale(0.015625)"/>
        <path d="M 506 0 
L 506 4581 
L 3819 4581 
L 3819 4041 
L 1113 4041 
L 1113 2638 
L 3647 2638 
L 3647 2100 
L 1113 2100 
L 1113 541 
L 3925 541 
L 3925 0 
L 506 0 
z
" id="ArialMT-45" transform="scale(0.015625)"/>
       </defs>
       <use xlink:href="#ArialMT-49"/>
       <use x="27.783203" xlink:href="#ArialMT-4e"/>
       <use x="100" xlink:href="#ArialMT-53"/>
       <use x="166.699219" xlink:href="#ArialMT-54"/>
       <use x="220.408203" xlink:href="#ArialMT-41"/>
       <use x="287.107422" xlink:href="#ArialMT-4c"/>
       <use x="342.722656" xlink:href="#ArialMT-4c"/>
       <use x="398.337891" xlink:href="#ArialMT-4d"/>
       <use x="481.638672" xlink:href="#ArialMT-45"/>
       <use x="548.337891" xlink:href="#ArialMT-4e"/>
       <use x="620.554688" xlink:href="#ArialMT-54"/>
       <use x="681.638672" xlink:href="#ArialMT-53"/>
      </g>
     </g>
    </g>
    <g id="ytick_2">
     <g id="text_8">
      <!-- ONEOFF_FREQUENCY -->
      <g style="fill:#262626;" transform="translate(7.2 178.51721)scale(0.1 -0.1)">
       <defs>
        <path d="M 309 2231 
Q 309 3372 921 4017 
Q 1534 4663 2503 4663 
Q 3138 4663 3647 4359 
Q 4156 4056 4423 3514 
Q 4691 2972 4691 2284 
Q 4691 1588 4409 1038 
Q 4128 488 3612 205 
Q 3097 -78 2500 -78 
Q 1853 -78 1343 234 
Q 834 547 571 1087 
Q 309 1628 309 2231 
z
M 934 2222 
Q 934 1394 1379 917 
Q 1825 441 2497 441 
Q 3181 441 3623 922 
Q 4066 1403 4066 2288 
Q 4066 2847 3877 3264 
Q 3688 3681 3323 3911 
Q 2959 4141 2506 4141 
Q 1863 4141 1398 3698 
Q 934 3256 934 2222 
z
" id="ArialMT-4f" transform="scale(0.015625)"/>
        <path d="M 525 0 
L 525 4581 
L 3616 4581 
L 3616 4041 
L 1131 4041 
L 1131 2622 
L 3281 2622 
L 3281 2081 
L 1131 2081 
L 1131 0 
L 525 0 
z
" id="ArialMT-46" transform="scale(0.015625)"/>
        <path d="M -97 -1272 
L -97 -866 
L 3631 -866 
L 3631 -1272 
L -97 -1272 
z
" id="ArialMT-5f" transform="scale(0.015625)"/>
        <path d="M 503 0 
L 503 4581 
L 2534 4581 
Q 3147 4581 3465 4457 
Q 3784 4334 3975 4021 
Q 4166 3709 4166 3331 
Q 4166 2844 3850 2509 
Q 3534 2175 2875 2084 
Q 3116 1969 3241 1856 
Q 3506 1613 3744 1247 
L 4541 0 
L 3778 0 
L 3172 953 
Q 2906 1366 2734 1584 
Q 2563 1803 2427 1890 
Q 2291 1978 2150 2013 
Q 2047 2034 1813 2034 
L 1109 2034 
L 1109 0 
L 503 0 
z
M 1109 2559 
L 2413 2559 
Q 2828 2559 3062 2645 
Q 3297 2731 3419 2920 
Q 3541 3109 3541 3331 
Q 3541 3656 3305 3865 
Q 3069 4075 2559 4075 
L 1109 4075 
L 1109 2559 
z
" id="ArialMT-52" transform="scale(0.015625)"/>
        <path d="M 3966 491 
Q 4388 200 4744 66 
L 4566 -356 
Q 4072 -178 3581 206 
Q 3072 -78 2456 -78 
Q 1834 -78 1328 222 
Q 822 522 548 1065 
Q 275 1609 275 2291 
Q 275 2969 550 3525 
Q 825 4081 1333 4372 
Q 1841 4663 2469 4663 
Q 3103 4663 3612 4361 
Q 4122 4059 4389 3517 
Q 4656 2975 4656 2294 
Q 4656 1728 4484 1276 
Q 4313 825 3966 491 
z
M 2631 1266 
Q 3156 1119 3497 828 
Q 4031 1316 4031 2294 
Q 4031 2850 3842 3265 
Q 3653 3681 3289 3911 
Q 2925 4141 2472 4141 
Q 1794 4141 1347 3677 
Q 900 3213 900 2291 
Q 900 1397 1342 919 
Q 1784 441 2472 441 
Q 2797 441 3084 563 
Q 2800 747 2484 825 
L 2631 1266 
z
" id="ArialMT-51" transform="scale(0.015625)"/>
        <path d="M 3500 4581 
L 4106 4581 
L 4106 1934 
Q 4106 1244 3950 837 
Q 3794 431 3386 176 
Q 2978 -78 2316 -78 
Q 1672 -78 1262 144 
Q 853 366 678 786 
Q 503 1206 503 1934 
L 503 4581 
L 1109 4581 
L 1109 1938 
Q 1109 1341 1220 1058 
Q 1331 775 1601 622 
Q 1872 469 2263 469 
Q 2931 469 3215 772 
Q 3500 1075 3500 1938 
L 3500 4581 
z
" id="ArialMT-55" transform="scale(0.015625)"/>
        <path d="M 3763 1606 
L 4369 1453 
Q 4178 706 3683 314 
Q 3188 -78 2472 -78 
Q 1731 -78 1267 223 
Q 803 525 561 1097 
Q 319 1669 319 2325 
Q 319 3041 592 3573 
Q 866 4106 1370 4382 
Q 1875 4659 2481 4659 
Q 3169 4659 3637 4309 
Q 4106 3959 4291 3325 
L 3694 3184 
Q 3534 3684 3231 3912 
Q 2928 4141 2469 4141 
Q 1941 4141 1586 3887 
Q 1231 3634 1087 3207 
Q 944 2781 944 2328 
Q 944 1744 1114 1308 
Q 1284 872 1643 656 
Q 2003 441 2422 441 
Q 2931 441 3284 734 
Q 3638 1028 3763 1606 
z
" id="ArialMT-43" transform="scale(0.015625)"/>
        <path d="M 1784 0 
L 1784 1941 
L 19 4581 
L 756 4581 
L 1659 3200 
Q 1909 2813 2125 2425 
Q 2331 2784 2625 3234 
L 3513 4581 
L 4219 4581 
L 2391 1941 
L 2391 0 
L 1784 0 
z
" id="ArialMT-59" transform="scale(0.015625)"/>
       </defs>
       <use xlink:href="#ArialMT-4f"/>
       <use x="77.783203" xlink:href="#ArialMT-4e"/>
       <use x="150" xlink:href="#ArialMT-45"/>
       <use x="216.699219" xlink:href="#ArialMT-4f"/>
       <use x="294.482422" xlink:href="#ArialMT-46"/>
       <use x="355.566406" xlink:href="#ArialMT-46"/>
       <use x="416.650391" xlink:href="#ArialMT-5f"/>
       <use x="472.265625" xlink:href="#ArialMT-46"/>
       <use x="533.349609" xlink:href="#ArialMT-52"/>
       <use x="605.566406" xlink:href="#ArialMT-45"/>
       <use x="672.265625" xlink:href="#ArialMT-51"/>
       <use x="750.048828" xlink:href="#ArialMT-55"/>
       <use x="822.265625" xlink:href="#ArialMT-45"/>
       <use x="888.964844" xlink:href="#ArialMT-4e"/>
       <use x="961.181641" xlink:href="#ArialMT-43"/>
       <use x="1033.398438" xlink:href="#ArialMT-59"/>
      </g>
     </g>
    </g>
    <g id="ytick_3">
     <g id="text_9">
      <!-- PURCHASES_TRX -->
      <g style="fill:#262626;" transform="translate(29.409375 161.310641)scale(0.1 -0.1)">
       <defs>
        <path d="M 494 0 
L 494 4581 
L 2222 4581 
Q 2678 4581 2919 4538 
Q 3256 4481 3484 4323 
Q 3713 4166 3852 3881 
Q 3991 3597 3991 3256 
Q 3991 2672 3619 2267 
Q 3247 1863 2275 1863 
L 1100 1863 
L 1100 0 
L 494 0 
z
M 1100 2403 
L 2284 2403 
Q 2872 2403 3119 2622 
Q 3366 2841 3366 3238 
Q 3366 3525 3220 3729 
Q 3075 3934 2838 4000 
Q 2684 4041 2272 4041 
L 1100 4041 
L 1100 2403 
z
" id="ArialMT-50" transform="scale(0.015625)"/>
        <path d="M 513 0 
L 513 4581 
L 1119 4581 
L 1119 2700 
L 3500 2700 
L 3500 4581 
L 4106 4581 
L 4106 0 
L 3500 0 
L 3500 2159 
L 1119 2159 
L 1119 0 
L 513 0 
z
" id="ArialMT-48" transform="scale(0.015625)"/>
        <path d="M 28 0 
L 1800 2388 
L 238 4581 
L 959 4581 
L 1791 3406 
Q 2050 3041 2159 2844 
Q 2313 3094 2522 3366 
L 3444 4581 
L 4103 4581 
L 2494 2422 
L 4228 0 
L 3478 0 
L 2325 1634 
Q 2228 1775 2125 1941 
Q 1972 1691 1906 1597 
L 756 0 
L 28 0 
z
" id="ArialMT-58" transform="scale(0.015625)"/>
       </defs>
       <use xlink:href="#ArialMT-50"/>
       <use x="66.699219" xlink:href="#ArialMT-55"/>
       <use x="138.916016" xlink:href="#ArialMT-52"/>
       <use x="211.132812" xlink:href="#ArialMT-43"/>
       <use x="283.349609" xlink:href="#ArialMT-48"/>
       <use x="355.566406" xlink:href="#ArialMT-41"/>
       <use x="422.265625" xlink:href="#ArialMT-53"/>
       <use x="488.964844" xlink:href="#ArialMT-45"/>
       <use x="555.664062" xlink:href="#ArialMT-53"/>
       <use x="622.363281" xlink:href="#ArialMT-5f"/>
       <use x="677.978516" xlink:href="#ArialMT-54"/>
       <use x="739.0625" xlink:href="#ArialMT-52"/>
       <use x="811.279297" xlink:href="#ArialMT-58"/>
      </g>
     </g>
    </g>
    <g id="ytick_4">
     <g id="text_10">
      <!-- ONEOFF -->
      <g style="fill:#262626;" transform="translate(75.545313 144.04626)scale(0.1 -0.1)">
       <use xlink:href="#ArialMT-4f"/>
       <use x="77.783203" xlink:href="#ArialMT-4e"/>
       <use x="150" xlink:href="#ArialMT-45"/>
       <use x="216.699219" xlink:href="#ArialMT-4f"/>
       <use x="294.482422" xlink:href="#ArialMT-46"/>
       <use x="355.566406" xlink:href="#ArialMT-46"/>
      </g>
     </g>
    </g>
    <g id="ytick_5">
     <g id="text_11">
      <!-- PURCHASES -->
      <g style="fill:#262626;" transform="translate(54.970313 126.842816)scale(0.1 -0.1)">
       <use xlink:href="#ArialMT-50"/>
       <use x="66.699219" xlink:href="#ArialMT-55"/>
       <use x="138.916016" xlink:href="#ArialMT-52"/>
       <use x="211.132812" xlink:href="#ArialMT-43"/>
       <use x="283.349609" xlink:href="#ArialMT-48"/>
       <use x="355.566406" xlink:href="#ArialMT-41"/>
       <use x="422.265625" xlink:href="#ArialMT-53"/>
       <use x="488.964844" xlink:href="#ArialMT-45"/>
       <use x="555.664062" xlink:href="#ArialMT-53"/>
      </g>
     </g>
    </g>
    <g id="ytick_6">
     <g id="text_12">
      <!-- CASH_ADVANCE -->
      <g style="fill:#262626;" transform="translate(36.254688 109.700309)scale(0.1 -0.1)">
       <defs>
        <path d="M 494 0 
L 494 4581 
L 2072 4581 
Q 2606 4581 2888 4516 
Q 3281 4425 3559 4188 
Q 3922 3881 4101 3404 
Q 4281 2928 4281 2316 
Q 4281 1794 4159 1391 
Q 4038 988 3847 723 
Q 3656 459 3429 307 
Q 3203 156 2883 78 
Q 2563 0 2147 0 
L 494 0 
z
M 1100 541 
L 2078 541 
Q 2531 541 2789 625 
Q 3047 709 3200 863 
Q 3416 1078 3536 1442 
Q 3656 1806 3656 2325 
Q 3656 3044 3420 3430 
Q 3184 3816 2847 3947 
Q 2603 4041 2063 4041 
L 1100 4041 
L 1100 541 
z
" id="ArialMT-44" transform="scale(0.015625)"/>
        <path d="M 1803 0 
L 28 4581 
L 684 4581 
L 1875 1253 
Q 2019 853 2116 503 
Q 2222 878 2363 1253 
L 3600 4581 
L 4219 4581 
L 2425 0 
L 1803 0 
z
" id="ArialMT-56" transform="scale(0.015625)"/>
       </defs>
       <use xlink:href="#ArialMT-43"/>
       <use x="72.216797" xlink:href="#ArialMT-41"/>
       <use x="138.916016" xlink:href="#ArialMT-53"/>
       <use x="205.615234" xlink:href="#ArialMT-48"/>
       <use x="277.832031" xlink:href="#ArialMT-5f"/>
       <use x="333.447266" xlink:href="#ArialMT-41"/>
       <use x="400.146484" xlink:href="#ArialMT-44"/>
       <use x="472.363281" xlink:href="#ArialMT-56"/>
       <use x="531.6875" xlink:href="#ArialMT-41"/>
       <use x="598.386719" xlink:href="#ArialMT-4e"/>
       <use x="670.603516" xlink:href="#ArialMT-43"/>
       <use x="742.820312" xlink:href="#ArialMT-45"/>
      </g>
     </g>
    </g>
    <g id="ytick_7">
     <g id="text_13">
      <!-- MINIMUM_PAYMENTS -->
      <g style="fill:#262626;" transform="translate(13.123438 92.496865)scale(0.1 -0.1)">
       <use xlink:href="#ArialMT-4d"/>
       <use x="83.300781" xlink:href="#ArialMT-49"/>
       <use x="111.083984" xlink:href="#ArialMT-4e"/>
       <use x="183.300781" xlink:href="#ArialMT-49"/>
       <use x="211.083984" xlink:href="#ArialMT-4d"/>
       <use x="294.384766" xlink:href="#ArialMT-55"/>
       <use x="366.601562" xlink:href="#ArialMT-4d"/>
       <use x="449.902344" xlink:href="#ArialMT-5f"/>
       <use x="505.517578" xlink:href="#ArialMT-50"/>
       <use x="564.841797" xlink:href="#ArialMT-41"/>
       <use x="624.166016" xlink:href="#ArialMT-59"/>
       <use x="690.865234" xlink:href="#ArialMT-4d"/>
       <use x="774.166016" xlink:href="#ArialMT-45"/>
       <use x="840.865234" xlink:href="#ArialMT-4e"/>
       <use x="913.082031" xlink:href="#ArialMT-54"/>
       <use x="974.166016" xlink:href="#ArialMT-53"/>
      </g>
     </g>
    </g>
    <g id="ytick_8">
     <g id="text_14">
      <!-- PAYMENTS -->
      <g style="fill:#262626;" transform="translate(63.673438 75.232484)scale(0.1 -0.1)">
       <use xlink:href="#ArialMT-50"/>
       <use x="59.324219" xlink:href="#ArialMT-41"/>
       <use x="118.648438" xlink:href="#ArialMT-59"/>
       <use x="185.347656" xlink:href="#ArialMT-4d"/>
       <use x="268.648438" xlink:href="#ArialMT-45"/>
       <use x="335.347656" xlink:href="#ArialMT-4e"/>
       <use x="407.564453" xlink:href="#ArialMT-54"/>
       <use x="468.648438" xlink:href="#ArialMT-53"/>
      </g>
     </g>
    </g>
    <g id="ytick_9">
     <g id="text_15">
      <!-- BALANCE -->
      <g style="fill:#262626;" transform="translate(70.523438 58.02904)scale(0.1 -0.1)">
       <defs>
        <path d="M 469 0 
L 469 4581 
L 2188 4581 
Q 2713 4581 3030 4442 
Q 3347 4303 3526 4014 
Q 3706 3725 3706 3409 
Q 3706 3116 3547 2856 
Q 3388 2597 3066 2438 
Q 3481 2316 3704 2022 
Q 3928 1728 3928 1328 
Q 3928 1006 3792 729 
Q 3656 453 3456 303 
Q 3256 153 2954 76 
Q 2653 0 2216 0 
L 469 0 
z
M 1075 2656 
L 2066 2656 
Q 2469 2656 2644 2709 
Q 2875 2778 2992 2937 
Q 3109 3097 3109 3338 
Q 3109 3566 3000 3739 
Q 2891 3913 2687 3977 
Q 2484 4041 1991 4041 
L 1075 4041 
L 1075 2656 
z
M 1075 541 
L 2216 541 
Q 2509 541 2628 563 
Q 2838 600 2978 687 
Q 3119 775 3209 942 
Q 3300 1109 3300 1328 
Q 3300 1584 3169 1773 
Q 3038 1963 2805 2039 
Q 2572 2116 2134 2116 
L 1075 2116 
L 1075 541 
z
" id="ArialMT-42" transform="scale(0.015625)"/>
       </defs>
       <use xlink:href="#ArialMT-42"/>
       <use x="66.699219" xlink:href="#ArialMT-41"/>
       <use x="133.398438" xlink:href="#ArialMT-4c"/>
       <use x="189.013672" xlink:href="#ArialMT-41"/>
       <use x="255.712891" xlink:href="#ArialMT-4e"/>
       <use x="327.929688" xlink:href="#ArialMT-43"/>
       <use x="400.146484" xlink:href="#ArialMT-45"/>
      </g>
     </g>
    </g>
    <g id="ytick_10">
     <g id="text_16">
      <!-- CREDIT_LIMIT -->
      <g style="fill:#262626;" transform="translate(48.871875 40.886534)scale(0.1 -0.1)">
       <use xlink:href="#ArialMT-43"/>
       <use x="72.216797" xlink:href="#ArialMT-52"/>
       <use x="144.433594" xlink:href="#ArialMT-45"/>
       <use x="211.132812" xlink:href="#ArialMT-44"/>
       <use x="283.349609" xlink:href="#ArialMT-49"/>
       <use x="311.132812" xlink:href="#ArialMT-54"/>
       <use x="372.216797" xlink:href="#ArialMT-5f"/>
       <use x="427.832031" xlink:href="#ArialMT-4c"/>
       <use x="483.447266" xlink:href="#ArialMT-49"/>
       <use x="511.230469" xlink:href="#ArialMT-4d"/>
       <use x="594.53125" xlink:href="#ArialMT-49"/>
       <use x="622.314453" xlink:href="#ArialMT-54"/>
      </g>
     </g>
    </g>
   </g>
   <g id="patch_3">
    <path clip-path="url(#p3c295edee2)" d="M 120.709375 198.959063 
L 125.748892 198.959063 
L 125.748892 185.196307 
L 120.709375 185.196307 
z
" style="fill:#1f77b4;stroke:#ffffff;stroke-linejoin:miter;"/>
   </g>
   <g id="patch_4">
    <path clip-path="url(#p3c295edee2)" d="M 120.709375 181.755619 
L 126.585023 181.755619 
L 126.585023 167.992864 
L 120.709375 167.992864 
z
" style="fill:#1f77b4;stroke:#ffffff;stroke-linejoin:miter;"/>
   </g>
   <g id="patch_5">
    <path clip-path="url(#p3c295edee2)" d="M 120.709375 164.552175 
L 127.274077 164.552175 
L 127.274077 150.78942 
L 120.709375 150.78942 
z
" style="fill:#1f77b4;stroke:#ffffff;stroke-linejoin:miter;"/>
   </g>
   <g id="patch_6">
    <path clip-path="url(#p3c295edee2)" d="M 120.709375 147.348731 
L 132.922913 147.348731 
L 132.922913 133.585976 
L 120.709375 133.585976 
z
" style="fill:#1f77b4;stroke:#ffffff;stroke-linejoin:miter;"/>
   </g>
   <g id="patch_7">
    <path clip-path="url(#p3c295edee2)" d="M 120.709375 130.145287 
L 142.943195 130.145287 
L 142.943195 116.382532 
L 120.709375 116.382532 
z
" style="fill:#1f77b4;stroke:#ffffff;stroke-linejoin:miter;"/>
   </g>
   <g id="patch_8">
    <path clip-path="url(#p3c295edee2)" d="M 120.709375 112.941843 
L 152.473651 112.941843 
L 152.473651 99.179088 
L 120.709375 99.179088 
z
" style="fill:#1f77b4;stroke:#ffffff;stroke-linejoin:miter;"/>
   </g>
   <g id="patch_9">
    <path clip-path="url(#p3c295edee2)" d="M 120.709375 95.738399 
L 154.343185 95.738399 
L 154.343185 81.975644 
L 120.709375 81.975644 
z
" style="fill:#1f77b4;stroke:#ffffff;stroke-linejoin:miter;"/>
   </g>
   <g id="patch_10">
    <path clip-path="url(#p3c295edee2)" d="M 120.709375 78.534955 
L 172.347525 78.534955 
L 172.347525 64.7722 
L 120.709375 64.7722 
z
" style="fill:#1f77b4;stroke:#ffffff;stroke-linejoin:miter;"/>
   </g>
   <g id="patch_11">
    <path clip-path="url(#p3c295edee2)" d="M 120.709375 61.331511 
L 188.897296 61.331511 
L 188.897296 47.568756 
L 120.709375 47.568756 
z
" style="fill:#1f77b4;stroke:#ffffff;stroke-linejoin:miter;"/>
   </g>
   <g id="patch_12">
    <path clip-path="url(#p3c295edee2)" d="M 120.709375 44.128068 
L 399.122073 44.128068 
L 399.122073 30.365313 
L 120.709375 30.365313 
z
" style="fill:#1f77b4;stroke:#ffffff;stroke-linejoin:miter;"/>
   </g>
   <g id="patch_13">
    <path d="M 120.709375 207.38875 
L 120.709375 21.935625 
" style="fill:none;stroke:#262626;stroke-linecap:square;stroke-linejoin:miter;stroke-width:1.25;"/>
   </g>
   <g id="patch_14">
    <path d="M 413.042708 207.38875 
L 413.042708 21.935625 
" style="fill:none;stroke:#262626;stroke-linecap:square;stroke-linejoin:miter;stroke-width:1.25;"/>
   </g>
   <g id="patch_15">
    <path d="M 120.709375 207.38875 
L 413.042708 207.38875 
" style="fill:none;stroke:#262626;stroke-linecap:square;stroke-linejoin:miter;stroke-width:1.25;"/>
   </g>
   <g id="patch_16">
    <path d="M 120.709375 21.935625 
L 413.042708 21.935625 
" style="fill:none;stroke:#262626;stroke-linecap:square;stroke-linejoin:miter;stroke-width:1.25;"/>
   </g>
   <g id="text_17">
    <!-- Feature Importances K-Means -->
    <g style="fill:#262626;" transform="translate(185.846979 15.935625)scale(0.12 -0.12)">
     <defs>
      <path d="M 2694 1069 
L 3275 997 
Q 3138 488 2766 206 
Q 2394 -75 1816 -75 
Q 1088 -75 661 373 
Q 234 822 234 1631 
Q 234 2469 665 2931 
Q 1097 3394 1784 3394 
Q 2450 3394 2872 2941 
Q 3294 2488 3294 1666 
Q 3294 1616 3291 1516 
L 816 1516 
Q 847 969 1125 678 
Q 1403 388 1819 388 
Q 2128 388 2347 550 
Q 2566 713 2694 1069 
z
M 847 1978 
L 2700 1978 
Q 2663 2397 2488 2606 
Q 2219 2931 1791 2931 
Q 1403 2931 1139 2672 
Q 875 2413 847 1978 
z
" id="ArialMT-65" transform="scale(0.015625)"/>
      <path d="M 2588 409 
Q 2275 144 1986 34 
Q 1697 -75 1366 -75 
Q 819 -75 525 192 
Q 231 459 231 875 
Q 231 1119 342 1320 
Q 453 1522 633 1644 
Q 813 1766 1038 1828 
Q 1203 1872 1538 1913 
Q 2219 1994 2541 2106 
Q 2544 2222 2544 2253 
Q 2544 2597 2384 2738 
Q 2169 2928 1744 2928 
Q 1347 2928 1158 2789 
Q 969 2650 878 2297 
L 328 2372 
Q 403 2725 575 2942 
Q 747 3159 1072 3276 
Q 1397 3394 1825 3394 
Q 2250 3394 2515 3294 
Q 2781 3194 2906 3042 
Q 3031 2891 3081 2659 
Q 3109 2516 3109 2141 
L 3109 1391 
Q 3109 606 3145 398 
Q 3181 191 3288 0 
L 2700 0 
Q 2613 175 2588 409 
z
M 2541 1666 
Q 2234 1541 1622 1453 
Q 1275 1403 1131 1340 
Q 988 1278 909 1158 
Q 831 1038 831 891 
Q 831 666 1001 516 
Q 1172 366 1500 366 
Q 1825 366 2078 508 
Q 2331 650 2450 897 
Q 2541 1088 2541 1459 
L 2541 1666 
z
" id="ArialMT-61" transform="scale(0.015625)"/>
      <path d="M 1650 503 
L 1731 6 
Q 1494 -44 1306 -44 
Q 1000 -44 831 53 
Q 663 150 594 308 
Q 525 466 525 972 
L 525 2881 
L 113 2881 
L 113 3319 
L 525 3319 
L 525 4141 
L 1084 4478 
L 1084 3319 
L 1650 3319 
L 1650 2881 
L 1084 2881 
L 1084 941 
Q 1084 700 1114 631 
Q 1144 563 1211 522 
Q 1278 481 1403 481 
Q 1497 481 1650 503 
z
" id="ArialMT-74" transform="scale(0.015625)"/>
      <path d="M 2597 0 
L 2597 488 
Q 2209 -75 1544 -75 
Q 1250 -75 995 37 
Q 741 150 617 320 
Q 494 491 444 738 
Q 409 903 409 1263 
L 409 3319 
L 972 3319 
L 972 1478 
Q 972 1038 1006 884 
Q 1059 663 1231 536 
Q 1403 409 1656 409 
Q 1909 409 2131 539 
Q 2353 669 2445 892 
Q 2538 1116 2538 1541 
L 2538 3319 
L 3100 3319 
L 3100 0 
L 2597 0 
z
" id="ArialMT-75" transform="scale(0.015625)"/>
      <path d="M 416 0 
L 416 3319 
L 922 3319 
L 922 2816 
Q 1116 3169 1280 3281 
Q 1444 3394 1641 3394 
Q 1925 3394 2219 3213 
L 2025 2691 
Q 1819 2813 1613 2813 
Q 1428 2813 1281 2702 
Q 1134 2591 1072 2394 
Q 978 2094 978 1738 
L 978 0 
L 416 0 
z
" id="ArialMT-72" transform="scale(0.015625)"/>
      <path id="ArialMT-20" transform="scale(0.015625)"/>
      <path d="M 422 0 
L 422 3319 
L 925 3319 
L 925 2853 
Q 1081 3097 1340 3245 
Q 1600 3394 1931 3394 
Q 2300 3394 2536 3241 
Q 2772 3088 2869 2813 
Q 3263 3394 3894 3394 
Q 4388 3394 4653 3120 
Q 4919 2847 4919 2278 
L 4919 0 
L 4359 0 
L 4359 2091 
Q 4359 2428 4304 2576 
Q 4250 2725 4106 2815 
Q 3963 2906 3769 2906 
Q 3419 2906 3187 2673 
Q 2956 2441 2956 1928 
L 2956 0 
L 2394 0 
L 2394 2156 
Q 2394 2531 2256 2718 
Q 2119 2906 1806 2906 
Q 1569 2906 1367 2781 
Q 1166 2656 1075 2415 
Q 984 2175 984 1722 
L 984 0 
L 422 0 
z
" id="ArialMT-6d" transform="scale(0.015625)"/>
      <path d="M 422 -1272 
L 422 3319 
L 934 3319 
L 934 2888 
Q 1116 3141 1344 3267 
Q 1572 3394 1897 3394 
Q 2322 3394 2647 3175 
Q 2972 2956 3137 2557 
Q 3303 2159 3303 1684 
Q 3303 1175 3120 767 
Q 2938 359 2589 142 
Q 2241 -75 1856 -75 
Q 1575 -75 1351 44 
Q 1128 163 984 344 
L 984 -1272 
L 422 -1272 
z
M 931 1641 
Q 931 1000 1190 694 
Q 1450 388 1819 388 
Q 2194 388 2461 705 
Q 2728 1022 2728 1688 
Q 2728 2322 2467 2637 
Q 2206 2953 1844 2953 
Q 1484 2953 1207 2617 
Q 931 2281 931 1641 
z
" id="ArialMT-70" transform="scale(0.015625)"/>
      <path d="M 213 1659 
Q 213 2581 725 3025 
Q 1153 3394 1769 3394 
Q 2453 3394 2887 2945 
Q 3322 2497 3322 1706 
Q 3322 1066 3130 698 
Q 2938 331 2570 128 
Q 2203 -75 1769 -75 
Q 1072 -75 642 372 
Q 213 819 213 1659 
z
M 791 1659 
Q 791 1022 1069 705 
Q 1347 388 1769 388 
Q 2188 388 2466 706 
Q 2744 1025 2744 1678 
Q 2744 2294 2464 2611 
Q 2184 2928 1769 2928 
Q 1347 2928 1069 2612 
Q 791 2297 791 1659 
z
" id="ArialMT-6f" transform="scale(0.015625)"/>
      <path d="M 422 0 
L 422 3319 
L 928 3319 
L 928 2847 
Q 1294 3394 1984 3394 
Q 2284 3394 2536 3286 
Q 2788 3178 2913 3003 
Q 3038 2828 3088 2588 
Q 3119 2431 3119 2041 
L 3119 0 
L 2556 0 
L 2556 2019 
Q 2556 2363 2490 2533 
Q 2425 2703 2258 2804 
Q 2091 2906 1866 2906 
Q 1506 2906 1245 2678 
Q 984 2450 984 1813 
L 984 0 
L 422 0 
z
" id="ArialMT-6e" transform="scale(0.015625)"/>
      <path d="M 2588 1216 
L 3141 1144 
Q 3050 572 2676 248 
Q 2303 -75 1759 -75 
Q 1078 -75 664 370 
Q 250 816 250 1647 
Q 250 2184 428 2587 
Q 606 2991 970 3192 
Q 1334 3394 1763 3394 
Q 2303 3394 2647 3120 
Q 2991 2847 3088 2344 
L 2541 2259 
Q 2463 2594 2264 2762 
Q 2066 2931 1784 2931 
Q 1359 2931 1093 2626 
Q 828 2322 828 1663 
Q 828 994 1084 691 
Q 1341 388 1753 388 
Q 2084 388 2306 591 
Q 2528 794 2588 1216 
z
" id="ArialMT-63" transform="scale(0.015625)"/>
      <path d="M 197 991 
L 753 1078 
Q 800 744 1014 566 
Q 1228 388 1613 388 
Q 2000 388 2187 545 
Q 2375 703 2375 916 
Q 2375 1106 2209 1216 
Q 2094 1291 1634 1406 
Q 1016 1563 777 1677 
Q 538 1791 414 1992 
Q 291 2194 291 2438 
Q 291 2659 392 2848 
Q 494 3038 669 3163 
Q 800 3259 1026 3326 
Q 1253 3394 1513 3394 
Q 1903 3394 2198 3281 
Q 2494 3169 2634 2976 
Q 2775 2784 2828 2463 
L 2278 2388 
Q 2241 2644 2061 2787 
Q 1881 2931 1553 2931 
Q 1166 2931 1000 2803 
Q 834 2675 834 2503 
Q 834 2394 903 2306 
Q 972 2216 1119 2156 
Q 1203 2125 1616 2013 
Q 2213 1853 2448 1751 
Q 2684 1650 2818 1456 
Q 2953 1263 2953 975 
Q 2953 694 2789 445 
Q 2625 197 2315 61 
Q 2006 -75 1616 -75 
Q 969 -75 630 194 
Q 291 463 197 991 
z
" id="ArialMT-73" transform="scale(0.015625)"/>
      <path d="M 469 0 
L 469 4581 
L 1075 4581 
L 1075 2309 
L 3350 4581 
L 4172 4581 
L 2250 2725 
L 4256 0 
L 3456 0 
L 1825 2319 
L 1075 1588 
L 1075 0 
L 469 0 
z
" id="ArialMT-4b" transform="scale(0.015625)"/>
      <path d="M 203 1375 
L 203 1941 
L 1931 1941 
L 1931 1375 
L 203 1375 
z
" id="ArialMT-2d" transform="scale(0.015625)"/>
     </defs>
     <use xlink:href="#ArialMT-46"/>
     <use x="61.083984" xlink:href="#ArialMT-65"/>
     <use x="116.699219" xlink:href="#ArialMT-61"/>
     <use x="172.314453" xlink:href="#ArialMT-74"/>
     <use x="200.097656" xlink:href="#ArialMT-75"/>
     <use x="255.712891" xlink:href="#ArialMT-72"/>
     <use x="289.013672" xlink:href="#ArialMT-65"/>
     <use x="344.628906" xlink:href="#ArialMT-20"/>
     <use x="372.412109" xlink:href="#ArialMT-49"/>
     <use x="400.195312" xlink:href="#ArialMT-6d"/>
     <use x="483.496094" xlink:href="#ArialMT-70"/>
     <use x="539.111328" xlink:href="#ArialMT-6f"/>
     <use x="594.726562" xlink:href="#ArialMT-72"/>
     <use x="628.027344" xlink:href="#ArialMT-74"/>
     <use x="655.810547" xlink:href="#ArialMT-61"/>
     <use x="711.425781" xlink:href="#ArialMT-6e"/>
     <use x="767.041016" xlink:href="#ArialMT-63"/>
     <use x="817.041016" xlink:href="#ArialMT-65"/>
     <use x="872.65625" xlink:href="#ArialMT-73"/>
     <use x="922.65625" xlink:href="#ArialMT-20"/>
     <use x="950.439453" xlink:href="#ArialMT-4b"/>
     <use x="1017.138672" xlink:href="#ArialMT-2d"/>
     <use x="1050.439453" xlink:href="#ArialMT-4d"/>
     <use x="1133.740234" xlink:href="#ArialMT-65"/>
     <use x="1189.355469" xlink:href="#ArialMT-61"/>
     <use x="1244.970703" xlink:href="#ArialMT-6e"/>
     <use x="1300.585938" xlink:href="#ArialMT-73"/>
    </g>
   </g>
  </g>
  <g id="axes_2">
   <g id="patch_17">
    <path d="M 546.042708 207.38875 
L 838.376042 207.38875 
L 838.376042 21.935625 
L 546.042708 21.935625 
z
" style="fill:#ffffff;"/>
   </g>
   <g id="matplotlib.axis_3">
    <g id="xtick_7">
     <g id="text_18">
      <!-- 0.0 -->
      <g style="fill:#262626;" transform="translate(539.092708 218.046563)scale(0.1 -0.1)">
       <use xlink:href="#ArialMT-30"/>
       <use x="55.615234" xlink:href="#ArialMT-2e"/>
       <use x="83.398438" xlink:href="#ArialMT-30"/>
      </g>
     </g>
    </g>
    <g id="xtick_8">
     <g id="text_19">
      <!-- 0.1 -->
      <g style="fill:#262626;" transform="translate(589.37984 218.046563)scale(0.1 -0.1)">
       <use xlink:href="#ArialMT-30"/>
       <use x="55.615234" xlink:href="#ArialMT-2e"/>
       <use x="83.398438" xlink:href="#ArialMT-31"/>
      </g>
     </g>
    </g>
    <g id="xtick_9">
     <g id="text_20">
      <!-- 0.2 -->
      <g style="fill:#262626;" transform="translate(639.666972 218.046563)scale(0.1 -0.1)">
       <use xlink:href="#ArialMT-30"/>
       <use x="55.615234" xlink:href="#ArialMT-2e"/>
       <use x="83.398438" xlink:href="#ArialMT-32"/>
      </g>
     </g>
    </g>
    <g id="xtick_10">
     <g id="text_21">
      <!-- 0.3 -->
      <g style="fill:#262626;" transform="translate(689.954103 218.046563)scale(0.1 -0.1)">
       <use xlink:href="#ArialMT-30"/>
       <use x="55.615234" xlink:href="#ArialMT-2e"/>
       <use x="83.398438" xlink:href="#ArialMT-33"/>
      </g>
     </g>
    </g>
    <g id="xtick_11">
     <g id="text_22">
      <!-- 0.4 -->
      <g style="fill:#262626;" transform="translate(740.241235 218.046563)scale(0.1 -0.1)">
       <use xlink:href="#ArialMT-30"/>
       <use x="55.615234" xlink:href="#ArialMT-2e"/>
       <use x="83.398438" xlink:href="#ArialMT-34"/>
      </g>
     </g>
    </g>
    <g id="xtick_12">
     <g id="text_23">
      <!-- 0.5 -->
      <g style="fill:#262626;" transform="translate(790.528367 218.046563)scale(0.1 -0.1)">
       <use xlink:href="#ArialMT-30"/>
       <use x="55.615234" xlink:href="#ArialMT-2e"/>
       <use x="83.398438" xlink:href="#ArialMT-35"/>
      </g>
     </g>
    </g>
   </g>
   <g id="matplotlib.axis_4">
    <g id="ytick_11">
     <g id="text_24">
      <!-- ONEOFF_FREQUENCY -->
      <g style="fill:#262626;" transform="translate(432.533333 195.720654)scale(0.1 -0.1)">
       <use xlink:href="#ArialMT-4f"/>
       <use x="77.783203" xlink:href="#ArialMT-4e"/>
       <use x="150" xlink:href="#ArialMT-45"/>
       <use x="216.699219" xlink:href="#ArialMT-4f"/>
       <use x="294.482422" xlink:href="#ArialMT-46"/>
       <use x="355.566406" xlink:href="#ArialMT-46"/>
       <use x="416.650391" xlink:href="#ArialMT-5f"/>
       <use x="472.265625" xlink:href="#ArialMT-46"/>
       <use x="533.349609" xlink:href="#ArialMT-52"/>
       <use x="605.566406" xlink:href="#ArialMT-45"/>
       <use x="672.265625" xlink:href="#ArialMT-51"/>
       <use x="750.048828" xlink:href="#ArialMT-55"/>
       <use x="822.265625" xlink:href="#ArialMT-45"/>
       <use x="888.964844" xlink:href="#ArialMT-4e"/>
       <use x="961.181641" xlink:href="#ArialMT-43"/>
       <use x="1033.398438" xlink:href="#ArialMT-59"/>
      </g>
     </g>
    </g>
    <g id="ytick_12">
     <g id="text_25">
      <!-- INSTALLMENTS -->
      <g style="fill:#262626;" transform="translate(467.709896 178.453147)scale(0.1 -0.1)">
       <use xlink:href="#ArialMT-49"/>
       <use x="27.783203" xlink:href="#ArialMT-4e"/>
       <use x="100" xlink:href="#ArialMT-53"/>
       <use x="166.699219" xlink:href="#ArialMT-54"/>
       <use x="220.408203" xlink:href="#ArialMT-41"/>
       <use x="287.107422" xlink:href="#ArialMT-4c"/>
       <use x="342.722656" xlink:href="#ArialMT-4c"/>
       <use x="398.337891" xlink:href="#ArialMT-4d"/>
       <use x="481.638672" xlink:href="#ArialMT-45"/>
       <use x="548.337891" xlink:href="#ArialMT-4e"/>
       <use x="620.554688" xlink:href="#ArialMT-54"/>
       <use x="681.638672" xlink:href="#ArialMT-53"/>
      </g>
     </g>
    </g>
    <g id="ytick_13">
     <g id="text_26">
      <!-- PURCHASES_TRX -->
      <g style="fill:#262626;" transform="translate(454.742708 161.310641)scale(0.1 -0.1)">
       <use xlink:href="#ArialMT-50"/>
       <use x="66.699219" xlink:href="#ArialMT-55"/>
       <use x="138.916016" xlink:href="#ArialMT-52"/>
       <use x="211.132812" xlink:href="#ArialMT-43"/>
       <use x="283.349609" xlink:href="#ArialMT-48"/>
       <use x="355.566406" xlink:href="#ArialMT-41"/>
       <use x="422.265625" xlink:href="#ArialMT-53"/>
       <use x="488.964844" xlink:href="#ArialMT-45"/>
       <use x="555.664062" xlink:href="#ArialMT-53"/>
       <use x="622.363281" xlink:href="#ArialMT-5f"/>
       <use x="677.978516" xlink:href="#ArialMT-54"/>
       <use x="739.0625" xlink:href="#ArialMT-52"/>
       <use x="811.279297" xlink:href="#ArialMT-58"/>
      </g>
     </g>
    </g>
    <g id="ytick_14">
     <g id="text_27">
      <!-- CASH_ADVANCE -->
      <g style="fill:#262626;" transform="translate(461.588021 144.107197)scale(0.1 -0.1)">
       <use xlink:href="#ArialMT-43"/>
       <use x="72.216797" xlink:href="#ArialMT-41"/>
       <use x="138.916016" xlink:href="#ArialMT-53"/>
       <use x="205.615234" xlink:href="#ArialMT-48"/>
       <use x="277.832031" xlink:href="#ArialMT-5f"/>
       <use x="333.447266" xlink:href="#ArialMT-41"/>
       <use x="400.146484" xlink:href="#ArialMT-44"/>
       <use x="472.363281" xlink:href="#ArialMT-56"/>
       <use x="531.6875" xlink:href="#ArialMT-41"/>
       <use x="598.386719" xlink:href="#ArialMT-4e"/>
       <use x="670.603516" xlink:href="#ArialMT-43"/>
       <use x="742.820312" xlink:href="#ArialMT-45"/>
      </g>
     </g>
    </g>
    <g id="ytick_15">
     <g id="text_28">
      <!-- MINIMUM_PAYMENTS -->
      <g style="fill:#262626;" transform="translate(438.456771 126.903753)scale(0.1 -0.1)">
       <use xlink:href="#ArialMT-4d"/>
       <use x="83.300781" xlink:href="#ArialMT-49"/>
       <use x="111.083984" xlink:href="#ArialMT-4e"/>
       <use x="183.300781" xlink:href="#ArialMT-49"/>
       <use x="211.083984" xlink:href="#ArialMT-4d"/>
       <use x="294.384766" xlink:href="#ArialMT-55"/>
       <use x="366.601562" xlink:href="#ArialMT-4d"/>
       <use x="449.902344" xlink:href="#ArialMT-5f"/>
       <use x="505.517578" xlink:href="#ArialMT-50"/>
       <use x="564.841797" xlink:href="#ArialMT-41"/>
       <use x="624.166016" xlink:href="#ArialMT-59"/>
       <use x="690.865234" xlink:href="#ArialMT-4d"/>
       <use x="774.166016" xlink:href="#ArialMT-45"/>
       <use x="840.865234" xlink:href="#ArialMT-4e"/>
       <use x="913.082031" xlink:href="#ArialMT-54"/>
       <use x="974.166016" xlink:href="#ArialMT-53"/>
      </g>
     </g>
    </g>
    <g id="ytick_16">
     <g id="text_29">
      <!-- ONEOFF -->
      <g style="fill:#262626;" transform="translate(500.878646 109.639372)scale(0.1 -0.1)">
       <use xlink:href="#ArialMT-4f"/>
       <use x="77.783203" xlink:href="#ArialMT-4e"/>
       <use x="150" xlink:href="#ArialMT-45"/>
       <use x="216.699219" xlink:href="#ArialMT-4f"/>
       <use x="294.482422" xlink:href="#ArialMT-46"/>
       <use x="355.566406" xlink:href="#ArialMT-46"/>
      </g>
     </g>
    </g>
    <g id="ytick_17">
     <g id="text_30">
      <!-- PURCHASES -->
      <g style="fill:#262626;" transform="translate(480.303646 92.435928)scale(0.1 -0.1)">
       <use xlink:href="#ArialMT-50"/>
       <use x="66.699219" xlink:href="#ArialMT-55"/>
       <use x="138.916016" xlink:href="#ArialMT-52"/>
       <use x="211.132812" xlink:href="#ArialMT-43"/>
       <use x="283.349609" xlink:href="#ArialMT-48"/>
       <use x="355.566406" xlink:href="#ArialMT-41"/>
       <use x="422.265625" xlink:href="#ArialMT-53"/>
       <use x="488.964844" xlink:href="#ArialMT-45"/>
       <use x="555.664062" xlink:href="#ArialMT-53"/>
      </g>
     </g>
    </g>
    <g id="ytick_18">
     <g id="text_31">
      <!-- PAYMENTS -->
      <g style="fill:#262626;" transform="translate(489.006771 75.232484)scale(0.1 -0.1)">
       <use xlink:href="#ArialMT-50"/>
       <use x="59.324219" xlink:href="#ArialMT-41"/>
       <use x="118.648438" xlink:href="#ArialMT-59"/>
       <use x="185.347656" xlink:href="#ArialMT-4d"/>
       <use x="268.648438" xlink:href="#ArialMT-45"/>
       <use x="335.347656" xlink:href="#ArialMT-4e"/>
       <use x="407.564453" xlink:href="#ArialMT-54"/>
       <use x="468.648438" xlink:href="#ArialMT-53"/>
      </g>
     </g>
    </g>
    <g id="ytick_19">
     <g id="text_32">
      <!-- BALANCE -->
      <g style="fill:#262626;" transform="translate(495.856771 58.02904)scale(0.1 -0.1)">
       <use xlink:href="#ArialMT-42"/>
       <use x="66.699219" xlink:href="#ArialMT-41"/>
       <use x="133.398438" xlink:href="#ArialMT-4c"/>
       <use x="189.013672" xlink:href="#ArialMT-41"/>
       <use x="255.712891" xlink:href="#ArialMT-4e"/>
       <use x="327.929688" xlink:href="#ArialMT-43"/>
       <use x="400.146484" xlink:href="#ArialMT-45"/>
      </g>
     </g>
    </g>
    <g id="ytick_20">
     <g id="text_33">
      <!-- CREDIT_LIMIT -->
      <g style="fill:#262626;" transform="translate(474.205208 40.886534)scale(0.1 -0.1)">
       <use xlink:href="#ArialMT-43"/>
       <use x="72.216797" xlink:href="#ArialMT-52"/>
       <use x="144.433594" xlink:href="#ArialMT-45"/>
       <use x="211.132812" xlink:href="#ArialMT-44"/>
       <use x="283.349609" xlink:href="#ArialMT-49"/>
       <use x="311.132812" xlink:href="#ArialMT-54"/>
       <use x="372.216797" xlink:href="#ArialMT-5f"/>
       <use x="427.832031" xlink:href="#ArialMT-4c"/>
       <use x="483.447266" xlink:href="#ArialMT-49"/>
       <use x="511.230469" xlink:href="#ArialMT-4d"/>
       <use x="594.53125" xlink:href="#ArialMT-49"/>
       <use x="622.314453" xlink:href="#ArialMT-54"/>
      </g>
     </g>
    </g>
   </g>
   <g id="patch_18">
    <path clip-path="url(#pf62930fb89)" d="M 546.042708 198.959063 
L 552.557697 198.959063 
L 552.557697 185.196307 
L 546.042708 185.196307 
z
" style="fill:#1f77b4;stroke:#ffffff;stroke-linejoin:miter;"/>
   </g>
   <g id="patch_19">
    <path clip-path="url(#pf62930fb89)" d="M 546.042708 181.755619 
L 553.737754 181.755619 
L 553.737754 167.992864 
L 546.042708 167.992864 
z
" style="fill:#1f77b4;stroke:#ffffff;stroke-linejoin:miter;"/>
   </g>
   <g id="patch_20">
    <path clip-path="url(#pf62930fb89)" d="M 546.042708 164.552175 
L 553.82393 164.552175 
L 553.82393 150.78942 
L 546.042708 150.78942 
z
" style="fill:#1f77b4;stroke:#ffffff;stroke-linejoin:miter;"/>
   </g>
   <g id="patch_21">
    <path clip-path="url(#pf62930fb89)" d="M 546.042708 147.348731 
L 559.682653 147.348731 
L 559.682653 133.585976 
L 546.042708 133.585976 
z
" style="fill:#1f77b4;stroke:#ffffff;stroke-linejoin:miter;"/>
   </g>
   <g id="patch_22">
    <path clip-path="url(#pf62930fb89)" d="M 546.042708 130.145287 
L 562.159149 130.145287 
L 562.159149 116.382532 
L 546.042708 116.382532 
z
" style="fill:#1f77b4;stroke:#ffffff;stroke-linejoin:miter;"/>
   </g>
   <g id="patch_23">
    <path clip-path="url(#pf62930fb89)" d="M 546.042708 112.941843 
L 562.182043 112.941843 
L 562.182043 99.179088 
L 546.042708 99.179088 
z
" style="fill:#1f77b4;stroke:#ffffff;stroke-linejoin:miter;"/>
   </g>
   <g id="patch_24">
    <path clip-path="url(#pf62930fb89)" d="M 546.042708 95.738399 
L 583.449679 95.738399 
L 583.449679 81.975644 
L 546.042708 81.975644 
z
" style="fill:#1f77b4;stroke:#ffffff;stroke-linejoin:miter;"/>
   </g>
   <g id="patch_25">
    <path clip-path="url(#pf62930fb89)" d="M 546.042708 78.534955 
L 597.044043 78.534955 
L 597.044043 64.7722 
L 546.042708 64.7722 
z
" style="fill:#1f77b4;stroke:#ffffff;stroke-linejoin:miter;"/>
   </g>
   <g id="patch_26">
    <path clip-path="url(#pf62930fb89)" d="M 546.042708 61.331511 
L 600.000602 61.331511 
L 600.000602 47.568756 
L 546.042708 47.568756 
z
" style="fill:#1f77b4;stroke:#ffffff;stroke-linejoin:miter;"/>
   </g>
   <g id="patch_27">
    <path clip-path="url(#pf62930fb89)" d="M 546.042708 44.128068 
L 824.455407 44.128068 
L 824.455407 30.365313 
L 546.042708 30.365313 
z
" style="fill:#1f77b4;stroke:#ffffff;stroke-linejoin:miter;"/>
   </g>
   <g id="patch_28">
    <path d="M 546.042708 207.38875 
L 546.042708 21.935625 
" style="fill:none;stroke:#262626;stroke-linecap:square;stroke-linejoin:miter;stroke-width:1.25;"/>
   </g>
   <g id="patch_29">
    <path d="M 838.376042 207.38875 
L 838.376042 21.935625 
" style="fill:none;stroke:#262626;stroke-linecap:square;stroke-linejoin:miter;stroke-width:1.25;"/>
   </g>
   <g id="patch_30">
    <path d="M 546.042708 207.38875 
L 838.376042 207.38875 
" style="fill:none;stroke:#262626;stroke-linecap:square;stroke-linejoin:miter;stroke-width:1.25;"/>
   </g>
   <g id="patch_31">
    <path d="M 546.042708 21.935625 
L 838.376042 21.935625 
" style="fill:none;stroke:#262626;stroke-linecap:square;stroke-linejoin:miter;stroke-width:1.25;"/>
   </g>
   <g id="text_34">
    <!-- Feature Importances Agglomerative -->
    <g style="fill:#262626;" transform="translate(597.1675 15.935625)scale(0.12 -0.12)">
     <defs>
      <path d="M 319 -275 
L 866 -356 
Q 900 -609 1056 -725 
Q 1266 -881 1628 -881 
Q 2019 -881 2231 -725 
Q 2444 -569 2519 -288 
Q 2563 -116 2559 434 
Q 2191 0 1641 0 
Q 956 0 581 494 
Q 206 988 206 1678 
Q 206 2153 378 2554 
Q 550 2956 876 3175 
Q 1203 3394 1644 3394 
Q 2231 3394 2613 2919 
L 2613 3319 
L 3131 3319 
L 3131 450 
Q 3131 -325 2973 -648 
Q 2816 -972 2473 -1159 
Q 2131 -1347 1631 -1347 
Q 1038 -1347 672 -1080 
Q 306 -813 319 -275 
z
M 784 1719 
Q 784 1066 1043 766 
Q 1303 466 1694 466 
Q 2081 466 2343 764 
Q 2606 1063 2606 1700 
Q 2606 2309 2336 2618 
Q 2066 2928 1684 2928 
Q 1309 2928 1046 2623 
Q 784 2319 784 1719 
z
" id="ArialMT-67" transform="scale(0.015625)"/>
      <path d="M 409 0 
L 409 4581 
L 972 4581 
L 972 0 
L 409 0 
z
" id="ArialMT-6c" transform="scale(0.015625)"/>
      <path d="M 425 3934 
L 425 4581 
L 988 4581 
L 988 3934 
L 425 3934 
z
M 425 0 
L 425 3319 
L 988 3319 
L 988 0 
L 425 0 
z
" id="ArialMT-69" transform="scale(0.015625)"/>
      <path d="M 1344 0 
L 81 3319 
L 675 3319 
L 1388 1331 
Q 1503 1009 1600 663 
Q 1675 925 1809 1294 
L 2547 3319 
L 3125 3319 
L 1869 0 
L 1344 0 
z
" id="ArialMT-76" transform="scale(0.015625)"/>
     </defs>
     <use xlink:href="#ArialMT-46"/>
     <use x="61.083984" xlink:href="#ArialMT-65"/>
     <use x="116.699219" xlink:href="#ArialMT-61"/>
     <use x="172.314453" xlink:href="#ArialMT-74"/>
     <use x="200.097656" xlink:href="#ArialMT-75"/>
     <use x="255.712891" xlink:href="#ArialMT-72"/>
     <use x="289.013672" xlink:href="#ArialMT-65"/>
     <use x="344.628906" xlink:href="#ArialMT-20"/>
     <use x="372.412109" xlink:href="#ArialMT-49"/>
     <use x="400.195312" xlink:href="#ArialMT-6d"/>
     <use x="483.496094" xlink:href="#ArialMT-70"/>
     <use x="539.111328" xlink:href="#ArialMT-6f"/>
     <use x="594.726562" xlink:href="#ArialMT-72"/>
     <use x="628.027344" xlink:href="#ArialMT-74"/>
     <use x="655.810547" xlink:href="#ArialMT-61"/>
     <use x="711.425781" xlink:href="#ArialMT-6e"/>
     <use x="767.041016" xlink:href="#ArialMT-63"/>
     <use x="817.041016" xlink:href="#ArialMT-65"/>
     <use x="872.65625" xlink:href="#ArialMT-73"/>
     <use x="922.65625" xlink:href="#ArialMT-20"/>
     <use x="944.939453" xlink:href="#ArialMT-41"/>
     <use x="1011.638672" xlink:href="#ArialMT-67"/>
     <use x="1067.253906" xlink:href="#ArialMT-67"/>
     <use x="1122.869141" xlink:href="#ArialMT-6c"/>
     <use x="1145.085938" xlink:href="#ArialMT-6f"/>
     <use x="1200.701172" xlink:href="#ArialMT-6d"/>
     <use x="1284.001953" xlink:href="#ArialMT-65"/>
     <use x="1339.617188" xlink:href="#ArialMT-72"/>
     <use x="1372.917969" xlink:href="#ArialMT-61"/>
     <use x="1428.533203" xlink:href="#ArialMT-74"/>
     <use x="1456.316406" xlink:href="#ArialMT-69"/>
     <use x="1478.533203" xlink:href="#ArialMT-76"/>
     <use x="1528.533203" xlink:href="#ArialMT-65"/>
    </g>
   </g>
  </g>
  <g id="axes_3">
   <g id="patch_32">
    <path d="M 971.376042 207.38875 
L 1263.709375 207.38875 
L 1263.709375 21.935625 
L 971.376042 21.935625 
z
" style="fill:#ffffff;"/>
   </g>
   <g id="matplotlib.axis_5">
    <g id="xtick_13">
     <g id="text_35">
      <!-- 0.00 -->
      <g style="fill:#262626;" transform="translate(961.645573 218.046563)scale(0.1 -0.1)">
       <use xlink:href="#ArialMT-30"/>
       <use x="55.615234" xlink:href="#ArialMT-2e"/>
       <use x="83.398438" xlink:href="#ArialMT-30"/>
       <use x="139.013672" xlink:href="#ArialMT-30"/>
      </g>
     </g>
    </g>
    <g id="xtick_14">
     <g id="text_36">
      <!-- 0.05 -->
      <g style="fill:#262626;" transform="translate(994.185363 218.046563)scale(0.1 -0.1)">
       <use xlink:href="#ArialMT-30"/>
       <use x="55.615234" xlink:href="#ArialMT-2e"/>
       <use x="83.398438" xlink:href="#ArialMT-30"/>
       <use x="139.013672" xlink:href="#ArialMT-35"/>
      </g>
     </g>
    </g>
    <g id="xtick_15">
     <g id="text_37">
      <!-- 0.10 -->
      <g style="fill:#262626;" transform="translate(1026.725153 218.046563)scale(0.1 -0.1)">
       <use xlink:href="#ArialMT-30"/>
       <use x="55.615234" xlink:href="#ArialMT-2e"/>
       <use x="83.398438" xlink:href="#ArialMT-31"/>
       <use x="139.013672" xlink:href="#ArialMT-30"/>
      </g>
     </g>
    </g>
    <g id="xtick_16">
     <g id="text_38">
      <!-- 0.15 -->
      <g style="fill:#262626;" transform="translate(1059.264943 218.046563)scale(0.1 -0.1)">
       <use xlink:href="#ArialMT-30"/>
       <use x="55.615234" xlink:href="#ArialMT-2e"/>
       <use x="83.398438" xlink:href="#ArialMT-31"/>
       <use x="139.013672" xlink:href="#ArialMT-35"/>
      </g>
     </g>
    </g>
    <g id="xtick_17">
     <g id="text_39">
      <!-- 0.20 -->
      <g style="fill:#262626;" transform="translate(1091.804734 218.046563)scale(0.1 -0.1)">
       <use xlink:href="#ArialMT-30"/>
       <use x="55.615234" xlink:href="#ArialMT-2e"/>
       <use x="83.398438" xlink:href="#ArialMT-32"/>
       <use x="139.013672" xlink:href="#ArialMT-30"/>
      </g>
     </g>
    </g>
    <g id="xtick_18">
     <g id="text_40">
      <!-- 0.25 -->
      <g style="fill:#262626;" transform="translate(1124.344524 218.046563)scale(0.1 -0.1)">
       <use xlink:href="#ArialMT-30"/>
       <use x="55.615234" xlink:href="#ArialMT-2e"/>
       <use x="83.398438" xlink:href="#ArialMT-32"/>
       <use x="139.013672" xlink:href="#ArialMT-35"/>
      </g>
     </g>
    </g>
    <g id="xtick_19">
     <g id="text_41">
      <!-- 0.30 -->
      <g style="fill:#262626;" transform="translate(1156.884314 218.046563)scale(0.1 -0.1)">
       <use xlink:href="#ArialMT-30"/>
       <use x="55.615234" xlink:href="#ArialMT-2e"/>
       <use x="83.398438" xlink:href="#ArialMT-33"/>
       <use x="139.013672" xlink:href="#ArialMT-30"/>
      </g>
     </g>
    </g>
    <g id="xtick_20">
     <g id="text_42">
      <!-- 0.35 -->
      <g style="fill:#262626;" transform="translate(1189.424104 218.046563)scale(0.1 -0.1)">
       <use xlink:href="#ArialMT-30"/>
       <use x="55.615234" xlink:href="#ArialMT-2e"/>
       <use x="83.398438" xlink:href="#ArialMT-33"/>
       <use x="139.013672" xlink:href="#ArialMT-35"/>
      </g>
     </g>
    </g>
    <g id="xtick_21">
     <g id="text_43">
      <!-- 0.40 -->
      <g style="fill:#262626;" transform="translate(1221.963894 218.046563)scale(0.1 -0.1)">
       <use xlink:href="#ArialMT-30"/>
       <use x="55.615234" xlink:href="#ArialMT-2e"/>
       <use x="83.398438" xlink:href="#ArialMT-34"/>
       <use x="139.013672" xlink:href="#ArialMT-30"/>
      </g>
     </g>
    </g>
   </g>
   <g id="matplotlib.axis_6">
    <g id="ytick_21">
     <g id="text_44">
      <!-- ONEOFF -->
      <g style="fill:#262626;" transform="translate(926.211979 195.656591)scale(0.1 -0.1)">
       <use xlink:href="#ArialMT-4f"/>
       <use x="77.783203" xlink:href="#ArialMT-4e"/>
       <use x="150" xlink:href="#ArialMT-45"/>
       <use x="216.699219" xlink:href="#ArialMT-4f"/>
       <use x="294.482422" xlink:href="#ArialMT-46"/>
       <use x="355.566406" xlink:href="#ArialMT-46"/>
      </g>
     </g>
    </g>
    <g id="ytick_22">
     <g id="text_45">
      <!-- CASH_ADVANCE_TRX -->
      <g style="fill:#262626;" transform="translate(861.360417 178.514085)scale(0.1 -0.1)">
       <use xlink:href="#ArialMT-43"/>
       <use x="72.216797" xlink:href="#ArialMT-41"/>
       <use x="138.916016" xlink:href="#ArialMT-53"/>
       <use x="205.615234" xlink:href="#ArialMT-48"/>
       <use x="277.832031" xlink:href="#ArialMT-5f"/>
       <use x="333.447266" xlink:href="#ArialMT-41"/>
       <use x="400.146484" xlink:href="#ArialMT-44"/>
       <use x="472.363281" xlink:href="#ArialMT-56"/>
       <use x="531.6875" xlink:href="#ArialMT-41"/>
       <use x="598.386719" xlink:href="#ArialMT-4e"/>
       <use x="670.603516" xlink:href="#ArialMT-43"/>
       <use x="742.820312" xlink:href="#ArialMT-45"/>
       <use x="809.519531" xlink:href="#ArialMT-5f"/>
       <use x="865.134766" xlink:href="#ArialMT-54"/>
       <use x="926.21875" xlink:href="#ArialMT-52"/>
       <use x="998.435547" xlink:href="#ArialMT-58"/>
      </g>
     </g>
    </g>
    <g id="ytick_23">
     <g id="text_46">
      <!-- INSTALLMENTS -->
      <g style="fill:#262626;" transform="translate(893.043229 161.249703)scale(0.1 -0.1)">
       <use xlink:href="#ArialMT-49"/>
       <use x="27.783203" xlink:href="#ArialMT-4e"/>
       <use x="100" xlink:href="#ArialMT-53"/>
       <use x="166.699219" xlink:href="#ArialMT-54"/>
       <use x="220.408203" xlink:href="#ArialMT-41"/>
       <use x="287.107422" xlink:href="#ArialMT-4c"/>
       <use x="342.722656" xlink:href="#ArialMT-4c"/>
       <use x="398.337891" xlink:href="#ArialMT-4d"/>
       <use x="481.638672" xlink:href="#ArialMT-45"/>
       <use x="548.337891" xlink:href="#ArialMT-4e"/>
       <use x="620.554688" xlink:href="#ArialMT-54"/>
       <use x="681.638672" xlink:href="#ArialMT-53"/>
      </g>
     </g>
    </g>
    <g id="ytick_24">
     <g id="text_47">
      <!-- PURCHASES_TRX -->
      <g style="fill:#262626;" transform="translate(880.076042 144.107197)scale(0.1 -0.1)">
       <use xlink:href="#ArialMT-50"/>
       <use x="66.699219" xlink:href="#ArialMT-55"/>
       <use x="138.916016" xlink:href="#ArialMT-52"/>
       <use x="211.132812" xlink:href="#ArialMT-43"/>
       <use x="283.349609" xlink:href="#ArialMT-48"/>
       <use x="355.566406" xlink:href="#ArialMT-41"/>
       <use x="422.265625" xlink:href="#ArialMT-53"/>
       <use x="488.964844" xlink:href="#ArialMT-45"/>
       <use x="555.664062" xlink:href="#ArialMT-53"/>
       <use x="622.363281" xlink:href="#ArialMT-5f"/>
       <use x="677.978516" xlink:href="#ArialMT-54"/>
       <use x="739.0625" xlink:href="#ArialMT-52"/>
       <use x="811.279297" xlink:href="#ArialMT-58"/>
      </g>
     </g>
    </g>
    <g id="ytick_25">
     <g id="text_48">
      <!-- PURCHASES -->
      <g style="fill:#262626;" transform="translate(905.636979 126.842816)scale(0.1 -0.1)">
       <use xlink:href="#ArialMT-50"/>
       <use x="66.699219" xlink:href="#ArialMT-55"/>
       <use x="138.916016" xlink:href="#ArialMT-52"/>
       <use x="211.132812" xlink:href="#ArialMT-43"/>
       <use x="283.349609" xlink:href="#ArialMT-48"/>
       <use x="355.566406" xlink:href="#ArialMT-41"/>
       <use x="422.265625" xlink:href="#ArialMT-53"/>
       <use x="488.964844" xlink:href="#ArialMT-45"/>
       <use x="555.664062" xlink:href="#ArialMT-53"/>
      </g>
     </g>
    </g>
    <g id="ytick_26">
     <g id="text_49">
      <!-- PAYMENTS -->
      <g style="fill:#262626;" transform="translate(914.340104 109.639372)scale(0.1 -0.1)">
       <use xlink:href="#ArialMT-50"/>
       <use x="59.324219" xlink:href="#ArialMT-41"/>
       <use x="118.648438" xlink:href="#ArialMT-59"/>
       <use x="185.347656" xlink:href="#ArialMT-4d"/>
       <use x="268.648438" xlink:href="#ArialMT-45"/>
       <use x="335.347656" xlink:href="#ArialMT-4e"/>
       <use x="407.564453" xlink:href="#ArialMT-54"/>
       <use x="468.648438" xlink:href="#ArialMT-53"/>
      </g>
     </g>
    </g>
    <g id="ytick_27">
     <g id="text_50">
      <!-- CASH_ADVANCE -->
      <g style="fill:#262626;" transform="translate(886.921354 92.496865)scale(0.1 -0.1)">
       <use xlink:href="#ArialMT-43"/>
       <use x="72.216797" xlink:href="#ArialMT-41"/>
       <use x="138.916016" xlink:href="#ArialMT-53"/>
       <use x="205.615234" xlink:href="#ArialMT-48"/>
       <use x="277.832031" xlink:href="#ArialMT-5f"/>
       <use x="333.447266" xlink:href="#ArialMT-41"/>
       <use x="400.146484" xlink:href="#ArialMT-44"/>
       <use x="472.363281" xlink:href="#ArialMT-56"/>
       <use x="531.6875" xlink:href="#ArialMT-41"/>
       <use x="598.386719" xlink:href="#ArialMT-4e"/>
       <use x="670.603516" xlink:href="#ArialMT-43"/>
       <use x="742.820312" xlink:href="#ArialMT-45"/>
      </g>
     </g>
    </g>
    <g id="ytick_28">
     <g id="text_51">
      <!-- CREDIT_LIMIT -->
      <g style="fill:#262626;" transform="translate(899.538542 75.293422)scale(0.1 -0.1)">
       <use xlink:href="#ArialMT-43"/>
       <use x="72.216797" xlink:href="#ArialMT-52"/>
       <use x="144.433594" xlink:href="#ArialMT-45"/>
       <use x="211.132812" xlink:href="#ArialMT-44"/>
       <use x="283.349609" xlink:href="#ArialMT-49"/>
       <use x="311.132812" xlink:href="#ArialMT-54"/>
       <use x="372.216797" xlink:href="#ArialMT-5f"/>
       <use x="427.832031" xlink:href="#ArialMT-4c"/>
       <use x="483.447266" xlink:href="#ArialMT-49"/>
       <use x="511.230469" xlink:href="#ArialMT-4d"/>
       <use x="594.53125" xlink:href="#ArialMT-49"/>
       <use x="622.314453" xlink:href="#ArialMT-54"/>
      </g>
     </g>
    </g>
    <g id="ytick_29">
     <g id="text_52">
      <!-- MINIMUM_PAYMENTS -->
      <g style="fill:#262626;" transform="translate(863.790104 58.089978)scale(0.1 -0.1)">
       <use xlink:href="#ArialMT-4d"/>
       <use x="83.300781" xlink:href="#ArialMT-49"/>
       <use x="111.083984" xlink:href="#ArialMT-4e"/>
       <use x="183.300781" xlink:href="#ArialMT-49"/>
       <use x="211.083984" xlink:href="#ArialMT-4d"/>
       <use x="294.384766" xlink:href="#ArialMT-55"/>
       <use x="366.601562" xlink:href="#ArialMT-4d"/>
       <use x="449.902344" xlink:href="#ArialMT-5f"/>
       <use x="505.517578" xlink:href="#ArialMT-50"/>
       <use x="564.841797" xlink:href="#ArialMT-41"/>
       <use x="624.166016" xlink:href="#ArialMT-59"/>
       <use x="690.865234" xlink:href="#ArialMT-4d"/>
       <use x="774.166016" xlink:href="#ArialMT-45"/>
       <use x="840.865234" xlink:href="#ArialMT-4e"/>
       <use x="913.082031" xlink:href="#ArialMT-54"/>
       <use x="974.166016" xlink:href="#ArialMT-53"/>
      </g>
     </g>
    </g>
    <g id="ytick_30">
     <g id="text_53">
      <!-- BALANCE -->
      <g style="fill:#262626;" transform="translate(921.190104 40.825596)scale(0.1 -0.1)">
       <use xlink:href="#ArialMT-42"/>
       <use x="66.699219" xlink:href="#ArialMT-41"/>
       <use x="133.398438" xlink:href="#ArialMT-4c"/>
       <use x="189.013672" xlink:href="#ArialMT-41"/>
       <use x="255.712891" xlink:href="#ArialMT-4e"/>
       <use x="327.929688" xlink:href="#ArialMT-43"/>
       <use x="400.146484" xlink:href="#ArialMT-45"/>
      </g>
     </g>
    </g>
   </g>
   <g id="patch_33">
    <path clip-path="url(#p98e73f9646)" d="M 971.376042 198.959063 
L 983.294016 198.959063 
L 983.294016 185.196307 
L 971.376042 185.196307 
z
" style="fill:#1f77b4;stroke:#ffffff;stroke-linejoin:miter;"/>
   </g>
   <g id="patch_34">
    <path clip-path="url(#p98e73f9646)" d="M 971.376042 181.755619 
L 985.468355 181.755619 
L 985.468355 167.992864 
L 971.376042 167.992864 
z
" style="fill:#1f77b4;stroke:#ffffff;stroke-linejoin:miter;"/>
   </g>
   <g id="patch_35">
    <path clip-path="url(#p98e73f9646)" d="M 971.376042 164.552175 
L 987.815028 164.552175 
L 987.815028 150.78942 
L 971.376042 150.78942 
z
" style="fill:#1f77b4;stroke:#ffffff;stroke-linejoin:miter;"/>
   </g>
   <g id="patch_36">
    <path clip-path="url(#p98e73f9646)" d="M 971.376042 147.348731 
L 990.884308 147.348731 
L 990.884308 133.585976 
L 971.376042 133.585976 
z
" style="fill:#1f77b4;stroke:#ffffff;stroke-linejoin:miter;"/>
   </g>
   <g id="patch_37">
    <path clip-path="url(#p98e73f9646)" d="M 971.376042 130.145287 
L 995.1636 130.145287 
L 995.1636 116.382532 
L 971.376042 116.382532 
z
" style="fill:#1f77b4;stroke:#ffffff;stroke-linejoin:miter;"/>
   </g>
   <g id="patch_38">
    <path clip-path="url(#p98e73f9646)" d="M 971.376042 112.941843 
L 999.069111 112.941843 
L 999.069111 99.179088 
L 971.376042 99.179088 
z
" style="fill:#1f77b4;stroke:#ffffff;stroke-linejoin:miter;"/>
   </g>
   <g id="patch_39">
    <path clip-path="url(#p98e73f9646)" d="M 971.376042 95.738399 
L 1021.03279 95.738399 
L 1021.03279 81.975644 
L 971.376042 81.975644 
z
" style="fill:#1f77b4;stroke:#ffffff;stroke-linejoin:miter;"/>
   </g>
   <g id="patch_40">
    <path clip-path="url(#p98e73f9646)" d="M 971.376042 78.534955 
L 1043.365908 78.534955 
L 1043.365908 64.7722 
L 971.376042 64.7722 
z
" style="fill:#1f77b4;stroke:#ffffff;stroke-linejoin:miter;"/>
   </g>
   <g id="patch_41">
    <path clip-path="url(#p98e73f9646)" d="M 971.376042 61.331511 
L 1084.714987 61.331511 
L 1084.714987 47.568756 
L 971.376042 47.568756 
z
" style="fill:#1f77b4;stroke:#ffffff;stroke-linejoin:miter;"/>
   </g>
   <g id="patch_42">
    <path clip-path="url(#p98e73f9646)" d="M 971.376042 44.128068 
L 1249.78874 44.128068 
L 1249.78874 30.365313 
L 971.376042 30.365313 
z
" style="fill:#1f77b4;stroke:#ffffff;stroke-linejoin:miter;"/>
   </g>
   <g id="patch_43">
    <path d="M 971.376042 207.38875 
L 971.376042 21.935625 
" style="fill:none;stroke:#262626;stroke-linecap:square;stroke-linejoin:miter;stroke-width:1.25;"/>
   </g>
   <g id="patch_44">
    <path d="M 1263.709375 207.38875 
L 1263.709375 21.935625 
" style="fill:none;stroke:#262626;stroke-linecap:square;stroke-linejoin:miter;stroke-width:1.25;"/>
   </g>
   <g id="patch_45">
    <path d="M 971.376042 207.38875 
L 1263.709375 207.38875 
" style="fill:none;stroke:#262626;stroke-linecap:square;stroke-linejoin:miter;stroke-width:1.25;"/>
   </g>
   <g id="patch_46">
    <path d="M 971.376042 21.935625 
L 1263.709375 21.935625 
" style="fill:none;stroke:#262626;stroke-linecap:square;stroke-linejoin:miter;stroke-width:1.25;"/>
   </g>
   <g id="text_54">
    <!-- Feature Importances GMM -->
    <g style="fill:#262626;" transform="translate(1045.858646 15.935625)scale(0.12 -0.12)">
     <defs>
      <path d="M 2638 1797 
L 2638 2334 
L 4578 2338 
L 4578 638 
Q 4131 281 3656 101 
Q 3181 -78 2681 -78 
Q 2006 -78 1454 211 
Q 903 500 622 1047 
Q 341 1594 341 2269 
Q 341 2938 620 3517 
Q 900 4097 1425 4378 
Q 1950 4659 2634 4659 
Q 3131 4659 3532 4498 
Q 3934 4338 4162 4050 
Q 4391 3763 4509 3300 
L 3963 3150 
Q 3859 3500 3706 3700 
Q 3553 3900 3268 4020 
Q 2984 4141 2638 4141 
Q 2222 4141 1919 4014 
Q 1616 3888 1430 3681 
Q 1244 3475 1141 3228 
Q 966 2803 966 2306 
Q 966 1694 1177 1281 
Q 1388 869 1791 669 
Q 2194 469 2647 469 
Q 3041 469 3416 620 
Q 3791 772 3984 944 
L 3984 1797 
L 2638 1797 
z
" id="ArialMT-47" transform="scale(0.015625)"/>
     </defs>
     <use xlink:href="#ArialMT-46"/>
     <use x="61.083984" xlink:href="#ArialMT-65"/>
     <use x="116.699219" xlink:href="#ArialMT-61"/>
     <use x="172.314453" xlink:href="#ArialMT-74"/>
     <use x="200.097656" xlink:href="#ArialMT-75"/>
     <use x="255.712891" xlink:href="#ArialMT-72"/>
     <use x="289.013672" xlink:href="#ArialMT-65"/>
     <use x="344.628906" xlink:href="#ArialMT-20"/>
     <use x="372.412109" xlink:href="#ArialMT-49"/>
     <use x="400.195312" xlink:href="#ArialMT-6d"/>
     <use x="483.496094" xlink:href="#ArialMT-70"/>
     <use x="539.111328" xlink:href="#ArialMT-6f"/>
     <use x="594.726562" xlink:href="#ArialMT-72"/>
     <use x="628.027344" xlink:href="#ArialMT-74"/>
     <use x="655.810547" xlink:href="#ArialMT-61"/>
     <use x="711.425781" xlink:href="#ArialMT-6e"/>
     <use x="767.041016" xlink:href="#ArialMT-63"/>
     <use x="817.041016" xlink:href="#ArialMT-65"/>
     <use x="872.65625" xlink:href="#ArialMT-73"/>
     <use x="922.65625" xlink:href="#ArialMT-20"/>
     <use x="950.439453" xlink:href="#ArialMT-47"/>
     <use x="1028.222656" xlink:href="#ArialMT-4d"/>
     <use x="1111.523438" xlink:href="#ArialMT-4d"/>
    </g>
   </g>
  </g>
 </g>
 <defs>
  <clipPath id="p3c295edee2">
   <rect height="185.453125" width="292.333333" x="120.709375" y="21.935625"/>
  </clipPath>
  <clipPath id="pf62930fb89">
   <rect height="185.453125" width="292.333333" x="546.042708" y="21.935625"/>
  </clipPath>
  <clipPath id="p98e73f9646">
   <rect height="185.453125" width="292.333333" x="971.376042" y="21.935625"/>
  </clipPath>
 </defs>
</svg>
